HIERARCHY
ROOT Hips
{
	OFFSET 0.000000 0.000000 0.000000
	CHANNELS 6 Xposition Yposition Zposition Zrotation Yrotation Xrotation 
	JOINT LHipJoint
	{
		OFFSET 0.000000 0.000000 0.000000
		CHANNELS 3 Zrotation Yrotation Xrotation
		JOINT LeftUpLeg
		{
			OFFSET 1.363060 -1.794630 0.839290
			CHANNELS 3 Zrotation Yrotation Xrotation
			JOINT LeftLeg
			{
				OFFSET 2.448110 -6.726130 0.000000
				CHANNELS 3 Zrotation Yrotation Xrotation
				JOINT LeftFoot
				{
					OFFSET 2.562200 -7.039590 0.000000
					CHANNELS 3 Zrotation Yrotation Xrotation
					JOINT LeftToeBase
					{
						OFFSET 0.157640 -0.433110 2.322550
						CHANNELS 3 Zrotation Yrotation Xrotation
						End Site
						{
							OFFSET 0.000000 0.000000 0.000000
						}
					}
				}
			}
		}
	}
	JOINT RHipJoint
	{
		OFFSET 0.000000 0.000000 0.000000
		CHANNELS 3 Zrotation Yrotation Xrotation
		JOINT RightUpLeg
		{
			OFFSET -1.305520 -1.794630 0.839290
			CHANNELS 3 Zrotation Yrotation Xrotation
			JOINT RightLeg
			{
				OFFSET -2.542530 -6.985550 0.000000
				CHANNELS 3 Zrotation Yrotation Xrotation
				JOINT RightFoot
				{
					OFFSET -2.568260 -7.056230 0.000000
					CHANNELS 3 Zrotation Yrotation Xrotation
					JOINT RightToeBase
					{
						OFFSET -0.164730 -0.452590 2.363150
						CHANNELS 3 Zrotation Yrotation Xrotation
						End Site
						{
							OFFSET 0.000000 0.000000 0.000000
						}
					}
				}
			}
		}
	}
	JOINT LowerBack
	{
		OFFSET 0.000000 0.000000 0.000000
		CHANNELS 3 Zrotation Yrotation Xrotation
		JOINT Spine
		{
			OFFSET 0.028270 2.035590 -0.193380
			CHANNELS 3 Zrotation Yrotation Xrotation
			JOINT Spine1
			{
				OFFSET 0.056720 2.048850 -0.042750
				CHANNELS 3 Zrotation Yrotation Xrotation
				JOINT Neck
				{
					OFFSET 0.000000 0.000000 0.000000
					CHANNELS 3 Zrotation Yrotation Xrotation
					JOINT Neck1
					{
						OFFSET -0.054170 1.746240 0.172020
						CHANNELS 3 Zrotation Yrotation Xrotation
						JOINT Head
						{
							OFFSET 0.104070 1.761360 -0.123970
							CHANNELS 3 Zrotation Yrotation Xrotation
							End Site
							{
								OFFSET 0.000000 0.000000 0.000000
							}
						}
					}
				}
				JOINT LeftShoulder
				{
					OFFSET 0.000000 0.000000 0.000000
					CHANNELS 3 Zrotation Yrotation Xrotation
					JOINT LeftArm
					{
						OFFSET 3.362410 1.200890 -0.311210
						CHANNELS 3 Zrotation Yrotation Xrotation
						JOINT LeftForeArm
						{
							OFFSET 4.983000 -0.000000 -0.000000
							CHANNELS 3 Zrotation Yrotation Xrotation
							JOINT LeftHand
							{
								OFFSET 3.483560 -0.000000 -0.000000
								CHANNELS 3 Zrotation Yrotation Xrotation
								JOINT LeftFingerBase
								{
									OFFSET 0.000000 0.000000 0.000000
									CHANNELS 3 Zrotation Yrotation Xrotation
									JOINT LeftHandIndex1
									{
										OFFSET 0.715260 -0.000000 -0.000000
										CHANNELS 3 Zrotation Yrotation Xrotation
										End Site
										{
											OFFSET 0.000000 0.000000 0.000000
										}
									}
								}
								JOINT LThumb
								{
									OFFSET 0.000000 0.000000 0.000000
									CHANNELS 3 Zrotation Yrotation Xrotation
									End Site
									{
										OFFSET 0.000000 0.000000 0.000000
									}
								}
							}
						}
					}
				}
				JOINT RightShoulder
				{
					OFFSET 0.000000 0.000000 0.000000
					CHANNELS 3 Zrotation Yrotation Xrotation
					JOINT RightArm
					{
						OFFSET -3.136600 1.374050 -0.404650
						CHANNELS 3 Zrotation Yrotation Xrotation
						JOINT RightForeArm
						{
							OFFSET -5.241900 -0.000000 -0.000000
							CHANNELS 3 Zrotation Yrotation Xrotation
							JOINT RightHand
							{
								OFFSET -3.444170 -0.000000 -0.000000
								CHANNELS 3 Zrotation Yrotation Xrotation
								JOINT RightFingerBase
								{
									OFFSET 0.000000 0.000000 0.000000
									CHANNELS 3 Zrotation Yrotation Xrotation
									JOINT RightHandIndex1
									{
										OFFSET -0.622530 -0.000000 -0.000000
										CHANNELS 3 Zrotation Yrotation Xrotation
										End Site
										{
											OFFSET 0.000000 0.000000 0.000000
										}
									}
								}
								JOINT RThumb
								{
									OFFSET 0.000000 0.000000 0.000000
									CHANNELS 3 Zrotation Yrotation Xrotation
									End Site
									{
										OFFSET 0.000000 0.000000 0.000000
									}
								}
							}
						}
					}
				}
			}
		}
	}
}
MOTION
Frames: 10
Frame Time: 0.008333
24.247226 19.054777 49.544957 2.861502 11.779337 8.014972 -14.318177 1.573591 2.388058 -1.142830 -3.641526 -41.379263 -34.908254 -14.683848 78.866617 -3.731528 60.386280 -5.357384 -0.587348 1.640081 -4.769589 16.252048 -4.283576 5.942335 -3.944493 8.986922 -23.937043 10.269412 16.714453 33.873872 15.623202 -51.615770 -24.038488 -0.398821 -1.447845 -3.198611 0.192977 1.763600 3.876451 0.593481 1.932192 -4.241021 -2.965862 1.752177 -4.456689 -1.326398 -0.305013 -2.110125 4.550082 -9.821246 20.259052 0.289203 -8.305286 -17.600852 5.688120 -6.247263 -0.367762 -65.013714 0.749181 35.473089 35.494615 -43.911820 -37.217376 10.620950 -3.629010 -8.011842 -3.648138 -0.717474 0.000000 0.000000 0.000000 0.000000 0.000000 0.000000 0.000000 -7.385866 8.354449 -0.705075 68.481990 8.100985 31.776714 -43.790320 60.567075 -46.239233 -7.741809 1.633024 2.885678 2.649818 0.401553 -0.000000 0.000000 0.000000 0.000000 0.000000 0.000000 0.000000
24.270386 19.037811 49.599213 2.586528 12.231227 7.896291 -14.880543 3.006228 1.729287 -1.176382 -1.435211 -38.529066 8.677028 4.876829 46.222627 -0.272319 11.774907 17.857995 -0.863226 1.814448 -6.516750 16.281412 -4.448559 6.265220 -3.912215 9.012305 -25.025448 14.494558 20.091262 38.546442 17.073686 -56.419566 -28.617928 -0.407024 -1.478129 -3.189105 0.543299 1.621050 4.015668 0.610488 1.761150 -4.240068 -2.970151 1.591620 -4.469151 -1.415568 -0.291472 -2.117613 4.652905 -9.790746 20.046800 0.184115 -8.260625 -17.743916 5.715047 -6.354035 -0.382917 -66.063023 0.475995 35.540852 36.611335 -43.995025 -38.563502 10.491209 -3.819649 -8.569344 -3.627413 -0.611458 0.000000 0.000000 0.000000 0.000000 0.000000 0.000000 0.000000 -7.312834 8.317270 -0.774447 69.260010 8.224715 31.571735 -42.248516 60.009019 -43.550524 -7.412637 2.147648 2.461789 2.549757 0.196568 -0.000000 0.000000 0.000000 0.000000 0.000000 0.000000 0.000000
24.295838 19.016318 49.655921 2.485352 11.833990 8.061004 -14.890879 2.937878 1.930905 -0.845540 -1.330204 -37.824612 8.003859 4.305998 43.187746 -0.589133 11.072217 18.146191 -0.774303 1.771581 -5.962371 16.156432 -4.212363 6.282354 -3.881732 9.089869 -26.072165 18.770444 22.783983 43.410447 19.183631 -60.458276 -33.378235 -0.415575 -1.507144 -3.115061 0.607175 1.670519 3.892105 0.608081 1.803934 -4.234770 -2.962748 1.639105 -4.458530 -1.507195 -0.271301 -2.159823 4.759972 -9.635321 19.785153 0.164118 -8.094545 -17.741721 5.634370 -6.392752 -0.431575 -66.970308 0.235176 34.957317 36.656480 -44.457859 -38.950770 10.451133 -4.018501 -8.601560 -3.629281 -0.521537 0.000000 0.000000 0.000000 0.000000 0.000000 0.000000 0.000000 -7.130883 8.406444 -0.739671 69.962568 8.516715 31.378886 -40.333660 59.358904 -40.556767 -6.704005 2.503390 2.136938 2.308263 0.033760 0.000000 0.000000 0.000000 0.000000 0.000000 0.000000 0.000000
24.322202 18.987290 49.707553 2.405873 11.388224 8.304385 -14.886314 2.821610 2.118103 -0.532603 -1.351266 -37.193265 7.481488 3.759150 40.420479 -0.849038 10.165243 18.751094 -0.754576 1.824516 -5.866383 15.986167 -3.865957 6.345291 -4.184090 9.631766 -27.132560 23.890756 25.002930 48.567619 23.108654 -65.045066 -39.771469 -0.400951 -1.447113 -2.966326 0.692162 1.698728 3.742143 0.608031 1.820616 -4.230042 -2.960747 1.660373 -4.436264 -1.624480 -0.272228 -2.210629 4.768479 -9.508343 19.521719 0.298638 -7.976603 -17.788760 5.543346 -6.418454 -0.550294 -67.866882 0.067094 34.184399 36.165535 -45.015856 -38.933656 10.224804 -4.210090 -8.517454 -3.567176 -0.424985 0.000000 0.000000 0.000000 0.000000 0.000000 0.000000 0.000000 -6.916165 8.475842 -0.627674 70.682607 9.066377 31.259307 -38.431328 58.334295 -37.524509 -6.197188 3.059459 1.815368 2.135237 -0.150348 0.000000 0.000000 0.000000 0.000000 0.000000 0.000000 0.000000
24.350884 18.951883 49.762513 2.322877 10.909606 8.502138 -14.897980 2.766293 2.308873 -0.356008 -1.280532 -36.728485 7.152114 3.205696 38.103724 -0.402710 8.717910 19.695778 -0.874992 2.431714 -6.826284 15.821761 -3.617088 6.407446 -4.513413 10.163922 -28.202212 28.114328 25.882677 52.750734 27.200248 -68.103674 -45.762619 -0.409904 -1.439047 -1.849824 0.765446 1.753219 3.602124 0.604749 1.864395 -4.225188 -3.014953 1.705011 -4.420886 -1.682455 -0.255371 -2.262573 4.873289 -9.407005 19.310207 0.237787 -7.861831 -17.857936 5.200938 -6.486856 -0.594972 -69.071768 -0.127025 34.689606 35.597563 -44.582816 -38.850311 5.966774 -4.188304 -8.431019 -2.168934 -0.277562 0.000000 0.000000 0.000000 0.000000 0.000000 0.000000 0.000000 -6.567432 8.598222 -0.588038 71.362485 9.473813 31.049057 -36.112477 57.153704 -34.172264 -5.055436 3.482998 1.626189 1.742324 -0.304926 0.000000 0.000000 0.000000 0.000000 0.000000 0.000000 0.000000
24.380118 18.904724 49.809742 2.270996 10.360052 8.717418 -14.906357 2.686726 2.514036 0.053298 -1.620793 -36.148674 6.826965 2.732030 36.020800 -0.668960 7.740708 20.710527 -0.810676 2.022870 -6.286345 15.651841 -3.370284 6.441121 -4.821253 10.524192 -29.391208 32.248999 26.353962 56.825768 31.855186 -70.752736 -52.021018 -0.360640 -1.277696 -2.326859 0.784728 1.808146 3.500582 0.600623 1.917356 -4.218813 -2.973298 1.770116 -4.377041 -1.793114 -0.236994 -2.342739 4.970886 -9.283316 19.072771 0.208310 -7.723218 -17.939909 5.039755 -6.574973 -0.656680 -70.034901 -0.577779 34.008821 36.712558 -44.088090 -39.328447 9.340213 -4.622676 -9.282043 -3.275060 -0.206978 0.000000 0.000000 0.000000 0.000000 0.000000 0.000000 0.000000 -6.245586 8.748694 -0.510119 71.939924 10.002447 30.810014 -34.292010 55.784657 -31.594137 -4.682630 4.003485 1.262669 1.600288 -0.443988 0.000000 0.000000 0.000000 0.000000 0.000000 0.000000 0.000000
24.408097 18.842411 49.859786 2.350455 9.167446 9.224704 -14.455071 1.271110 3.449455 0.553300 -4.603657 -37.331719 -41.011457 -30.217465 76.877098 -14.067468 61.833256 -13.318239 -0.825887 2.576030 -6.594968 15.351583 -2.765045 6.162166 -4.972989 10.714125 -30.541853 35.944714 26.479415 60.740048 36.553098 -72.355757 -58.219419 -0.325217 -1.132349 -1.670258 0.549292 2.013201 3.125646 0.581249 2.141619 -4.209089 -2.954296 1.998424 -4.423339 -1.881546 -0.193459 -2.339505 5.117214 -9.094660 18.793505 0.148701 -7.512744 -17.922198 4.800623 -6.725828 -0.680660 -71.150235 -0.765543 33.718938 37.020485 -43.448722 -39.268524 9.429194 -5.027091 -9.721320 -3.292479 -0.044654 0.000000 0.000000 0.000000 0.000000 0.000000 0.000000 0.000000 -5.900094 9.109613 -0.599868 72.592871 10.270015 30.771766 -32.768928 53.983091 -29.259623 -3.982663 4.420276 1.028549 1.342413 -0.547627 0.000000 0.000000 0.000000 0.000000 0.000000 0.000000 0.000000
24.440756 18.767823 49.907366 2.364963 8.699588 9.370403 -14.528001 1.313160 3.566121 1.168154 -5.576893 -36.506445 -39.356454 -31.081311 74.705923 -15.778912 59.991216 -13.776877 -0.631691 2.160178 -5.282942 15.196682 -2.637344 6.151323 -4.862230 10.126215 -31.928304 39.383270 26.389725 64.657583 40.330504 -73.536925 -63.095518 -0.316861 -1.086449 -0.985091 0.522298 2.027421 3.078183 0.579935 2.159092 -4.204805 -2.965861 2.018417 -4.349033 -1.940694 -0.164504 -2.446343 5.263288 -8.916882 18.571970 0.106421 -7.312972 -17.977993 4.449410 -6.880333 -0.782073 -72.311191 -1.180748 33.653667 36.615494 -42.447309 -38.539315 7.600056 -5.061898 -9.751902 -2.661307 0.019573 0.000000 0.000000 0.000000 0.000000 0.000000 0.000000 0.000000 -5.493861 9.266761 -0.402848 73.143424 10.945318 30.793683 -31.570247 51.867958 -27.697687 -4.079997 4.470445 0.446534 1.336640 -0.497430 0.000000 0.000000 0.000000 0.000000 0.000000 0.000000 0.000000
24.473563 18.683029 49.950547 2.355594 8.145862 9.540343 -14.541624 1.336595 3.726263 2.118275 -6.862360 -35.793980 -37.363582 -31.100530 72.294507 -20.722487 57.231597 -17.054898 -0.471205 1.712289 -4.103313 15.037127 -2.566607 6.119483 -4.586775 9.500269 -33.398880 42.267467 25.894676 68.276515 42.846289 -74.124802 -66.437048 -0.324136 -1.108211 -0.840826 0.505376 2.039086 3.042051 0.578793 2.175527 -4.199709 -2.948028 2.044281 -4.332754 -2.023060 -0.133243 -2.494327 5.430475 -8.631220 18.291495 0.064327 -7.004027 -17.942861 4.100089 -7.161529 -0.839941 -73.393438 -1.479384 33.441953 37.043310 -41.136626 -38.470488 8.162964 -5.271802 -10.625817 -2.811499 0.114852 0.000000 0.000000 0.000000 0.000000 0.000000 0.000000 0.000000 -5.032211 9.556853 -0.356944 73.519694 11.479939 30.492766 -29.856715 49.823814 -25.326905 -3.675448 4.569748 0.245033 1.153974 -0.482801 0.000000 0.000000 0.000000 0.000000 0.000000 0.000000 0.000000
24.507965 18.580745 49.992620 2.368609 7.545825 9.690519 -14.507368 1.256068 3.952351 3.321593 -8.537603 -35.001756 -37.556857 -30.800755 71.899452 -26.890277 56.206933 -23.763783 -0.656932 1.589044 -5.167774 14.857303 -2.444527 6.031830 -4.534167 9.190666 -34.659927 44.189759 24.667057 70.760205 43.527133 -74.007666 -68.247024 -0.335113 -1.144769 -0.788153 0.493396 2.031222 3.011901 0.579415 2.170638 -4.195796 -2.981782 2.043975 -4.292293 -2.091503 -0.115109 -2.562207 5.546411 -8.384259 18.099278 0.056846 -6.738537 -18.105052 3.663744 -7.487182 -1.009358 -74.425253 -1.655823 33.139591 36.985079 -39.619939 -37.604211 6.933363 -5.351406 -10.809250 -2.350965 0.169964 0.000000 0.000000 0.000000 0.000000 0.000000 0.000000 0.000000 -4.550866 9.866845 -0.139216 73.869901 12.202738 30.232824 -28.329004 47.735422 -23.281954 -3.100378 4.839459 0.035426 0.923324 -0.531823 0.000000 0.000000 0.000000 0.000000 0.000000 0.000000 0.000000
